<?xml version="1.0" encoding="utf-8"?>
<!-- Generator: Adobe Illustrator 24.0.1, SVG Export Plug-In . SVG Version: 6.00 Build 0)  -->
<svg version="1.1" id="Layer_1" xmlns="http://www.w3.org/2000/svg" xmlns:xlink="http://www.w3.org/1999/xlink" x="0px" y="0px"
	 viewBox="0 0 504.58 44.4" style="enable-background:new 0 0 504.58 44.4;" xml:space="preserve">
<style type="text/css">
	.st0{fill:#F2AEC1;}
</style>
<g>
	<g>
		<g>
			<path class="st0" d="M495.42,2.71c2.92-1.92,7.01-0.55,7.3,3.18c0.21,2.72-1.86,4.72-4.48,4.87c-0.18,0.01-0.37,0-0.55,0
				c-1.21,0.03-2.42,0-3.63,0c-5.4,0-10.8,0-16.2,0c-18.97,0-37.94,0-56.91,0c-23.06,0-46.12,0-69.18,0c-18.99,0-37.98,0-56.98,0
				c-5.32,0-10.65,0-15.97,0c-5.65,0-11.11,0.22-16.5,2.35c-3.96,1.56-7.52,3.84-10.69,6.68c-0.86,0.78,0.41,2.05,1.27,1.27
				c6.07-5.46,13.74-8.43,21.91-8.5c0.92-0.01,1.85,0,2.77,0c5.05,0,10.09,0,15.14,0c19.2,0,38.41,0,57.61,0
				c23.78,0,47.55,0,71.33,0c19.33,0,38.65,0,57.98,0c5.18,0,10.35,0,15.53,0c0.97,0,1.95,0.03,2.92,0c4.91-0.17,8.3-5.45,5.41-9.81
				c-2.03-3.06-6.06-3.51-9-1.58C493.55,1.79,494.45,3.35,495.42,2.71L495.42,2.71z"/>
		</g>
	</g>
	<g>
		<path class="st0" d="M244.28,31.72L244.28,31.72c1.87-4.37,4.63-8.2,8-11.3c3.37,3.1,6.13,6.92,8,11.3l-8,12.68L244.28,31.72z"/>
		<g>
			<path class="st0" d="M252.91,19.79c-7.05-6.34-15.66-9.03-24.99-9.03c-4.44,0-8.88,0-13.33,0c-17.85,0-35.71,0-53.56,0
				c-23,0-45.99,0-68.99,0c-19.98,0-39.97,0-59.95,0c-8.55,0-17.26,0.5-25.79,0c-2.37-0.14-4.4-1.8-4.52-4.3
				c-0.19-4,4.26-5.75,7.34-3.74C10.1,3.34,11,1.79,10.03,1.16c-2.96-1.93-6.96-1.47-9,1.59c-1.84,2.77-1.15,6.62,1.53,8.57
				c1.53,1.11,3.18,1.24,4.95,1.24c4.15,0,8.3,0,12.45,0c18.15,0,36.29,0,54.44,0c23.71,0,47.43,0,71.14,0c20.26,0,40.52,0,60.78,0
				c6.02,0,12.03,0,18.05,0c4.73,0,9.35-0.13,13.98,1.15c4.97,1.37,9.45,3.92,13.27,7.35C252.5,21.83,253.77,20.56,252.91,19.79
				L252.91,19.79z"/>
		</g>
	</g>
</g>
</svg>
