<?xml version="1.0" encoding="utf-8"?>
<!-- Generator: Adobe Illustrator 24.0.1, SVG Export Plug-In . SVG Version: 6.00 Build 0)  -->
<svg version="1.1" id="Layer_1" xmlns="http://www.w3.org/2000/svg" xmlns:xlink="http://www.w3.org/1999/xlink" x="0px" y="0px"
	 viewBox="0 0 504.57 34.36" style="enable-background:new 0 0 504.57 34.36;" xml:space="preserve">
<style type="text/css">
	.st0{fill:#FFFFFF;}
</style>
<g>
	<g>
		<g>
			<g>
				<path class="st0" d="M495.39,0c4.07,0,8.56,2.86,8.77,3c0.26,0.17,0.41,0.45,0.41,0.76c0,0.31-0.15,0.59-0.41,0.76
					c-0.24,0.15-5.85,3.73-10.22,2.86c-2.07-0.41-3-2.11-3-3.62c0-1.5,0.93-3.21,3-3.62l0,0C494.41,0.04,494.9,0,495.39,0z
					 M494.11,1.02L494.11,1.02L494.11,1.02z M501.85,3.76c-1.79-0.94-5.04-2.36-7.56-1.85l0,0c-1.14,0.23-1.55,1.14-1.55,1.85
					s0.41,1.63,1.55,1.85C496.82,6.11,500.07,4.69,501.85,3.76z"/>
			</g>
			<g>
				<path class="st0" d="M9.18,0c0.49,0,0.98,0.04,1.45,0.14l0,0c2.07,0.41,3,2.11,3,3.62c0,1.5-0.93,3.21-3,3.62
					C6.26,8.24,0.65,4.66,0.41,4.51C0.15,4.34,0,4.06,0,3.75C0,3.45,0.15,3.16,0.41,3C0.62,2.86,5.11,0,9.18,0z M10.28,1.9
					C7.75,1.4,4.5,2.82,2.72,3.75c1.79,0.94,5.04,2.35,7.56,1.85c1.14-0.23,1.55-1.14,1.55-1.85S11.42,2.13,10.28,1.9L10.28,1.9z"/>
			</g>
			<g>
				<path class="st0" d="M12.73,2.85h479.11c0.5,0,0.9,0.4,0.9,0.9c0,0.5-0.4,0.9-0.9,0.9H12.73c-0.5,0-0.9-0.4-0.9-0.9
					C11.83,3.26,12.23,2.85,12.73,2.85z"/>
			</g>
		</g>
	</g>
	<g>
		<g>
			<g>
				<path class="st0" d="M233.65,2.8c1.47,0,2.94,0.26,4.36,0.79l0.36,0.13c2.82,0.96,6.31,3.15,9.31,5.86
					c7.81,7.14,14.9,4.53,14.97,4.5c0.03-0.01,0.07-0.02,0.11-0.03c2.72-0.68,4.39-3.46,3.72-6.21c-0.51-2.08-2.6-3.37-4.67-2.87
					c-0.75,0.18-1.44,0.73-1.82,1.47c-0.57,1.1-0.55,2.17,0.05,2.95c0.52,0.67,1.39,0.97,2.21,0.76c0.48-0.12,0.97,0.17,1.09,0.66
					c0.12,0.48-0.17,0.97-0.66,1.09c-1.51,0.37-3.1-0.17-4.06-1.4c-1.05-1.34-1.14-3.17-0.24-4.9c0.62-1.2,1.75-2.09,3-2.39
					c3.02-0.72,6.09,1.16,6.83,4.2c0.9,3.69-1.33,7.43-4.98,8.37c-0.79,0.28-8.44,2.75-16.77-4.87c-2.78-2.51-6.12-4.62-8.7-5.5
					l-0.38-0.14c-3.4-1.27-7.2-0.72-10.15,1.46c-2.82,2.08-4.32,5.22-4.13,8.62c0.02,0.27,0.04,0.53,0.07,0.8
					c0.3,2.41,1.63,4.53,3.75,5.98c3.02,2.07,6.23,2.36,8.81,0.78c2.33-1.42,3.61-4.1,3.26-6.82c-0.18-1.4-0.98-2.69-2.2-3.54
					c-1.84-1.29-3.78-1.48-5.33-0.54c-1.39,0.84-2.16,2.44-1.95,4.06c0.11,0.83,0.53,1.56,1.19,2.07c0.65,0.5,1.45,0.72,2.26,0.61
					c0.51-0.06,0.95,0.28,1.01,0.78c0.06,0.49-0.28,0.94-0.78,1.01c-1.29,0.17-2.56-0.18-3.6-0.97c-1.04-0.8-1.71-1.96-1.87-3.27
					c-0.3-2.33,0.8-4.62,2.8-5.83c2.16-1.31,4.89-1.08,7.3,0.61c1.63,1.14,2.7,2.88,2.95,4.78c0.44,3.43-1.17,6.8-4.1,8.59
					c-3.16,1.93-7.19,1.62-10.76-0.83c-2.54-1.75-4.15-4.32-4.52-7.24c-0.04-0.31-0.07-0.62-0.08-0.93
					c-0.23-4.02,1.55-7.73,4.86-10.17C228.38,3.64,231,2.8,233.65,2.8z"/>
			</g>
			<g>
				<path class="st0" d="M270.92,2.8c2.65,0,5.27,0.84,7.49,2.48c3.31,2.44,5.08,6.15,4.86,10.17c-0.02,0.31-0.05,0.62-0.08,0.93
					c-0.37,2.92-1.97,5.5-4.52,7.24c-3.58,2.45-7.6,2.77-10.76,0.83c-2.93-1.79-4.54-5.16-4.1-8.59c0.24-1.9,1.32-3.64,2.95-4.78
					c2.41-1.69,5.14-1.91,7.3-0.61c2,1.21,3.1,3.5,2.8,5.83c-0.17,1.31-0.83,2.47-1.87,3.27c-1.03,0.79-2.31,1.14-3.6,0.97
					c-0.49-0.07-0.84-0.52-0.78-1.01c0.06-0.49,0.51-0.84,1.01-0.78c0.81,0.11,1.61-0.11,2.26-0.61c0.66-0.51,1.08-1.24,1.19-2.07
					c0.21-1.62-0.55-3.22-1.95-4.06c-1.55-0.94-3.5-0.74-5.33,0.54c-1.22,0.85-2.02,2.14-2.2,3.54c-0.35,2.72,0.93,5.4,3.26,6.82
					c2.58,1.58,5.79,1.29,8.81-0.78c2.11-1.45,3.44-3.57,3.75-5.98c0.03-0.27,0.06-0.54,0.07-0.8c0.19-3.41-1.31-6.55-4.13-8.62
					c-2.96-2.18-6.75-2.72-10.15-1.46l-0.36,0.13c-2.61,0.89-5.95,3-8.73,5.51c-8.33,7.62-15.98,5.15-16.77,4.87
					c-3.65-0.94-5.88-4.68-4.98-8.37c0.74-3.04,3.81-4.92,6.83-4.2c1.25,0.3,2.38,1.19,3,2.39c0.9,1.73,0.82,3.56-0.24,4.9
					c-0.96,1.22-2.56,1.77-4.06,1.4c-0.48-0.12-0.78-0.61-0.66-1.09c0.12-0.48,0.61-0.78,1.09-0.66c0.82,0.2,1.69-0.1,2.21-0.76
					c0.61-0.77,0.63-1.85,0.05-2.95c-0.39-0.74-1.07-1.29-1.83-1.47c-2.07-0.5-4.16,0.8-4.67,2.87c-0.67,2.75,1,5.53,3.72,6.21
					c0.04,0.01,0.07,0.02,0.11,0.03c0.29,0.11,7.21,2.6,14.97-4.5c3-2.71,6.49-4.9,9.34-5.87l0.34-0.13
					C267.98,3.06,269.45,2.8,270.92,2.8z"/>
			</g>
		</g>
		<g>
			<path class="st0" d="M252.28,17.86c0.37,0,0.7,0.22,0.84,0.57c0.12,0.29,2.81,7.1,2.17,12.32c-0.31,2.5-1.73,3.61-3,3.61
				c-1.27,0-2.7-1.12-3-3.61c-0.64-5.22,2.05-12.03,2.17-12.32C251.59,18.09,251.92,17.86,252.28,17.86z M252.28,32.56
				c0.48,0,1.05-0.7,1.22-2.03c0,0,0,0,0,0c0.36-2.95-0.5-6.61-1.22-8.98c-0.72,2.37-1.58,6.03-1.22,8.98
				C251.23,31.87,251.81,32.56,252.28,32.56z M254.39,30.64L254.39,30.64L254.39,30.64z"/>
		</g>
		<g>
			<g>
				<path class="st0" d="M246.82,18.67c0.24,0,0.46,0.09,0.64,0.26c0.22,0.22,0.31,0.53,0.24,0.83c-0.08,0.37-0.84,3.62-2.81,4.96
					l0,0c-0.94,0.64-2.11,0.53-2.91-0.26c-0.79-0.79-0.91-1.99-0.28-2.94c1.33-1.99,4.56-2.75,4.93-2.84
					C246.69,18.68,246.76,18.67,246.82,18.67z M244.39,23.98l-0.5-0.75c0.68-0.46,1.2-1.4,1.55-2.26c-0.86,0.36-1.78,0.88-2.23,1.56
					c-0.22,0.33-0.04,0.57,0.05,0.66c0.1,0.1,0.33,0.25,0.63,0.04L244.39,23.98z"/>
			</g>
			<g>
				<path class="st0" d="M257.75,18.67c0.06,0,0.13,0.01,0.19,0.02c0.36,0.08,3.6,0.84,4.93,2.84c0.63,0.94,0.51,2.15-0.28,2.94
					c-0.8,0.79-1.96,0.89-2.91,0.26l0,0c-1.98-1.34-2.73-4.59-2.81-4.96c-0.07-0.3,0.03-0.61,0.24-0.83
					C257.28,18.77,257.51,18.67,257.75,18.67z M260.99,23.34c0.15,0,0.26-0.08,0.33-0.15c0.09-0.09,0.27-0.33,0.05-0.66
					c-0.45-0.68-1.38-1.2-2.23-1.56c0.36,0.87,0.88,1.81,1.55,2.26C260.8,23.31,260.9,23.34,260.99,23.34z"/>
			</g>
		</g>
	</g>
</g>
</svg>
